<svg width="24" height="24" viewBox="0 0 24 24" fill="none" xmlns="http://www.w3.org/2000/svg">
<path fill-rule="evenodd" clip-rule="evenodd" d="M15.8333 13.8333C15.8333 13.4191 16.1691 13.0833 16.5833 13.0833H22.0833C22.4976 13.0833 22.8333 13.4191 22.8333 13.8333V19.3333C22.8333 19.7475 22.4976 20.0833 22.0833 20.0833C21.6691 20.0833 21.3333 19.7475 21.3333 19.3333V14.5833H16.5833C16.1691 14.5833 15.8333 14.2475 15.8333 13.8333Z" fill="white"/>
<path fill-rule="evenodd" clip-rule="evenodd" d="M1.91665 3.91666C2.33087 3.91666 2.66665 4.25244 2.66665 4.66666V9.41665H7.41665C7.83087 9.41665 8.16665 9.75244 8.16665 10.1667C8.16665 10.5809 7.83087 10.9167 7.41665 10.9167H1.91665C1.50244 10.9167 1.16665 10.5809 1.16665 10.1667V4.66666C1.16665 4.25244 1.50244 3.91666 1.91665 3.91666Z" fill="white"/>
<path fill-rule="evenodd" clip-rule="evenodd" d="M9.50433 3.35662C10.9648 2.93419 12.5084 2.8886 13.9912 3.2241C15.4741 3.55961 16.8477 4.26528 17.9841 5.27527C19.1204 6.28525 19.9824 7.56663 20.4895 8.99985C20.6277 9.39033 20.4232 9.8189 20.0327 9.95708C19.6422 10.0953 19.2136 9.89073 19.0754 9.50024C18.6528 8.3059 17.9345 7.23808 16.9876 6.39642C16.0406 5.55477 14.8959 4.96671 13.6602 4.68712C12.4245 4.40753 11.1382 4.44553 9.92112 4.79755C8.70409 5.14958 7.59607 5.80417 6.70045 6.70024C6.69491 6.70578 6.68928 6.71124 6.68357 6.71661L2.43024 10.7133C2.12838 10.9969 1.65373 10.9822 1.37009 10.6803C1.08645 10.3784 1.10121 9.90379 1.40307 9.62015L5.64802 5.63136C6.72128 4.56043 8.04774 3.77794 9.50433 3.35662ZM22.6299 13.3198C22.9135 13.6217 22.8988 14.0963 22.5969 14.3799L18.352 18.3687C17.2787 19.4397 15.9522 20.2221 14.4956 20.6435C13.0352 21.0659 11.4916 21.1115 10.0087 20.776C8.52592 20.4405 7.15225 19.7348 6.01592 18.7248C4.87958 17.7148 4.01762 16.4335 3.51045 15.0002C3.37227 14.6098 3.57681 14.1812 3.96729 14.043C4.35778 13.9048 4.78635 14.1094 4.92453 14.4998C5.34716 15.6942 6.06547 16.762 7.01241 17.6037C7.95936 18.4453 9.10408 19.0334 10.3398 19.313C11.5754 19.5926 12.8618 19.5546 14.0788 19.2025C15.2959 18.8505 16.4039 18.1959 17.2995 17.2998C17.3051 17.2943 17.3107 17.2888 17.3164 17.2835L21.5697 13.2868C21.8716 13.0032 22.3462 13.0179 22.6299 13.3198Z" fill="white"/>
</svg>
