<svg width="25" height="24" viewBox="0 0 25 24" fill="none" xmlns="http://www.w3.org/2000/svg">
<path d="M12.5 5.00001C12.5 4.6156 12.2797 4.26523 11.9332 4.09871C11.5867 3.93219 11.1755 3.979 10.8753 4.21914L6.14922 8.00001H2.5C1.94772 8.00001 1.5 8.44772 1.5 9.00001V15C1.5 15.5523 1.94772 16 2.5 16H6.14922L10.8753 19.7809C11.1755 20.021 11.5867 20.0678 11.9332 19.9013C12.2797 19.7348 12.5 19.3844 12.5 19V5.00001Z" fill="white"/>
<path fill-rule="evenodd" clip-rule="evenodd" d="M22.0303 8.46967C22.3232 8.76256 22.3232 9.23744 22.0303 9.53033L16.0303 15.5303C15.7374 15.8232 15.2626 15.8232 14.9697 15.5303C14.6768 15.2374 14.6768 14.7626 14.9697 14.4697L20.9697 8.46967C21.2626 8.17678 21.7374 8.17678 22.0303 8.46967Z" fill="white"/>
<path fill-rule="evenodd" clip-rule="evenodd" d="M14.9697 8.46967C15.2626 8.17678 15.7374 8.17678 16.0303 8.46967L22.0303 14.4697C22.3232 14.7626 22.3232 15.2374 22.0303 15.5303C21.7374 15.8232 21.2626 15.8232 20.9697 15.5303L14.9697 9.53033C14.6768 9.23744 14.6768 8.76256 14.9697 8.46967Z" fill="white"/>
</svg>
