<svg width="25" height="25" viewBox="0 0 25 25" fill="none" xmlns="http://www.w3.org/2000/svg">
<path d="M12.94 0.44C12.94 0.196995 12.743 0 12.5 0C12.257 0 12.06 0.196995 12.06 0.44V3.96C12.06 4.20301 12.257 4.4 12.5 4.4C12.743 4.4 12.94 4.20301 12.94 3.96V0.44Z" fill="white"/>
<path d="M5.21593 1.8339C5.41812 1.6991 5.69131 1.75374 5.8261 1.95593L7.5861 4.59593C7.7209 4.79812 7.66626 5.07131 7.46407 5.2061C7.26188 5.3409 6.98869 5.28626 6.8539 5.08407L5.0939 2.44407C4.9591 2.24188 5.01374 1.96869 5.21593 1.8339Z" fill="white"/>
<path d="M19.7841 1.8339C19.5819 1.6991 19.3087 1.75374 19.1739 1.95593L17.4139 4.59593C17.2791 4.79812 17.3337 5.07131 17.5359 5.2061C17.7381 5.3409 18.0113 5.28626 18.1461 5.08407L19.9061 2.44407C20.0409 2.24188 19.9863 1.96869 19.7841 1.8339Z" fill="white"/>
<path d="M1.5 8.8C1.5 8.55699 1.69699 8.36 1.94 8.36H4.58C4.82301 8.36 5.02 8.55699 5.02 8.8C5.02 9.043 4.82301 9.24 4.58 9.24H1.94C1.69699 9.24 1.5 9.043 1.5 8.8Z" fill="white"/>
<path d="M23.06 8.36C23.303 8.36 23.5 8.55699 23.5 8.8C23.5 9.043 23.303 9.24 23.06 9.24H20.42C20.177 9.24 19.98 9.043 19.98 8.8C19.98 8.55699 20.177 8.36 20.42 8.36H23.06Z" fill="white"/>
<path d="M7.39716 8.25955C6.70585 9.06609 6.50051 10.2557 6.08981 12.6349L5.25 17.5H19.75L18.9102 12.6349C18.4995 10.2557 18.2941 9.06609 17.6028 8.25955C17.3742 7.99279 17.1109 7.76136 16.8208 7.57213C15.9438 7 14.7959 7 12.5 7C10.2041 7 9.05621 7 8.17917 7.57213C7.88908 7.76136 7.62582 7.99279 7.39716 8.25955Z" fill="white"/>
<path d="M3.7636 18.7746C3.5 19.0492 3.5 19.4911 3.5 20.375C3.5 21.2589 3.5 21.7008 3.7636 21.9754C4.02721 22.25 4.45147 22.25 5.3 22.25H19.7C20.5485 22.25 20.9728 22.25 21.2364 21.9754C21.5 21.7008 21.5 21.2589 21.5 20.375C21.5 19.4911 21.5 19.0492 21.2364 18.7746C20.9728 18.5 20.5485 18.5 19.7 18.5H5.3C4.45147 18.5 4.02721 18.5 3.7636 18.7746Z" fill="white"/>
</svg>
