<svg width="24" height="25" viewBox="0 0 24 25" fill="none" xmlns="http://www.w3.org/2000/svg">
<g opacity="0.8">
<path fill-rule="evenodd" clip-rule="evenodd" d="M4.71593 1.8339C4.91812 1.6991 5.19131 1.75374 5.3261 1.95593L7.0861 4.59593C7.2209 4.79812 7.16626 5.07131 6.96407 5.2061C6.76188 5.3409 6.48869 5.28626 6.3539 5.08407L4.5939 2.44407C4.4591 2.24188 4.51374 1.96869 4.71593 1.8339Z" fill="white"/>
<path fill-rule="evenodd" clip-rule="evenodd" d="M19.2841 1.8339C19.0819 1.6991 18.8087 1.75374 18.6739 1.95593L16.9139 4.59593C16.7791 4.79812 16.8337 5.07131 17.0359 5.2061C17.2381 5.3409 17.5113 5.28626 17.6461 5.08407L19.4061 2.44407C19.5409 2.24188 19.4863 1.96869 19.2841 1.8339Z" fill="white"/>
<path fill-rule="evenodd" clip-rule="evenodd" d="M12 0C12.243 0 12.44 0.196995 12.44 0.44V3.96C12.44 4.20301 12.243 4.4 12 4.4C11.757 4.4 11.56 4.20301 11.56 3.96V0.44C11.56 0.196995 11.757 0 12 0Z" fill="white"/>
<path fill-rule="evenodd" clip-rule="evenodd" d="M1 8.8C1 8.55699 1.19699 8.36 1.44 8.36H4.08C4.32301 8.36 4.52 8.55699 4.52 8.8C4.52 9.04301 4.32301 9.24 4.08 9.24H1.44C1.19699 9.24 1 9.04301 1 8.8Z" fill="white"/>
<path fill-rule="evenodd" clip-rule="evenodd" d="M23 8.8C23 8.55699 22.803 8.36 22.56 8.36H19.92C19.677 8.36 19.48 8.55699 19.48 8.8C19.48 9.04301 19.677 9.24 19.92 9.24H22.56C22.803 9.24 23 9.04301 23 8.8Z" fill="white"/>
</g>
<path fill-rule="evenodd" clip-rule="evenodd" d="M6.89716 8.25955C6.20585 9.06609 6.00051 10.2557 5.58981 12.6349L4.75 17.5H12V15C12 14.4477 12.4477 14 13 14H18.6458L18.4102 12.6349C17.9995 10.2557 17.7941 9.06609 17.1028 8.25955C16.8742 7.99279 16.6109 7.76136 16.3208 7.57213C15.4438 7 14.2959 7 12 7C9.70414 7 8.55621 7 7.67917 7.57213C7.38908 7.76136 7.12582 7.99279 6.89716 8.25955ZM12 18.5V22.25H4.8C3.95147 22.25 3.52721 22.25 3.2636 21.9754C3 21.7008 3 21.2589 3 20.375C3 19.4911 3 19.0492 3.2636 18.7746C3.52721 18.5 3.95147 18.5 4.8 18.5H12Z" fill="white"/>
<path d="M13.3598 15.3598C13.25 15.4697 13.25 15.6464 13.25 16V17.875C13.25 18.2286 13.25 18.4053 13.3598 18.5152C13.4697 18.625 13.6464 18.625 14 18.625H15.875C16.2286 18.625 16.4053 18.625 16.5152 18.5152C16.625 18.4053 16.625 18.2286 16.625 17.875V16C16.625 15.6464 16.625 15.4697 16.5152 15.3598C16.4053 15.25 16.2286 15.25 15.875 15.25H14C13.6464 15.25 13.4697 15.25 13.3598 15.3598Z" fill="white"/>
<path d="M17.4848 15.3598C17.375 15.4697 17.375 15.6464 17.375 16V17.875C17.375 18.2286 17.375 18.4053 17.4848 18.5152C17.5947 18.625 17.7714 18.625 18.125 18.625H20C20.3536 18.625 20.5303 18.625 20.6402 18.5152C20.75 18.4053 20.75 18.2286 20.75 17.875V16C20.75 15.6464 20.75 15.4697 20.6402 15.3598C20.5303 15.25 20.3536 15.25 20 15.25H18.125C17.7714 15.25 17.5947 15.25 17.4848 15.3598Z" fill="white"/>
<path d="M17.375 20.125C17.375 19.7714 17.375 19.5947 17.4848 19.4848C17.5947 19.375 17.7714 19.375 18.125 19.375H20C20.3536 19.375 20.5303 19.375 20.6402 19.4848C20.75 19.5947 20.75 19.7714 20.75 20.125V22C20.75 22.3536 20.75 22.5303 20.6402 22.6402C20.5303 22.75 20.3536 22.75 20 22.75H18.125C17.7714 22.75 17.5947 22.75 17.4848 22.6402C17.375 22.5303 17.375 22.3536 17.375 22V20.125Z" fill="white"/>
<path d="M13.3598 19.4848C13.25 19.5947 13.25 19.7714 13.25 20.125V22C13.25 22.3536 13.25 22.5303 13.3598 22.6402C13.4697 22.75 13.6464 22.75 14 22.75H15.875C16.2286 22.75 16.4053 22.75 16.5152 22.6402C16.625 22.5303 16.625 22.3536 16.625 22V20.125C16.625 19.7714 16.625 19.5947 16.5152 19.4848C16.4053 19.375 16.2286 19.375 15.875 19.375H14C13.6464 19.375 13.4697 19.375 13.3598 19.4848Z" fill="white"/>
</svg>
