<svg width="20" height="20" viewBox="0 0 20 20" fill="none" xmlns="http://www.w3.org/2000/svg">
<path fill-rule="evenodd" clip-rule="evenodd" d="M15.1229 4.39775C13.7398 3.01465 11.4973 3.01465 10.1142 4.39775L4.369 10.143C4.04356 10.4684 3.51593 10.4684 3.19049 10.143C2.86505 9.81756 2.86505 9.28992 3.19049 8.96448L8.93573 3.21924C10.9697 1.18526 14.2674 1.18526 16.3014 3.21924C18.3354 5.25325 18.3352 8.55093 16.3013 10.5849L9.67214 17.214C8.20769 18.6785 5.83354 18.6785 4.36906 17.2141C2.90466 15.7497 2.90434 13.3753 4.36887 11.9107L10.998 5.28162C11.893 4.38667 13.3442 4.38667 14.2392 5.28162C15.1343 6.17672 15.1338 7.62771 14.239 8.52251L8.49376 14.2678C8.16832 14.5932 7.64068 14.5932 7.31524 14.2678C6.98981 13.9423 6.98981 13.4147 7.31524 13.0892L13.0605 7.344C13.3047 7.09977 13.3046 6.70406 13.0607 6.46013C12.8166 6.21605 12.4206 6.21605 12.1765 6.46013L5.54739 13.0893C4.73386 13.9028 4.73391 15.2219 5.54757 16.0355C6.36115 16.8491 7.68002 16.8491 8.49363 16.0355L15.1228 9.40638C16.5059 8.02324 16.5059 5.78083 15.1229 4.39775Z" fill="white"/>
</svg>
